/* XPM */
static char *c351486e59954b57edfacf6da8ba50cd[] = {
/* columns rows colors chars-per-pixel */
"80 80 256 2 ",
"   c #7E3E10",
".  c #7C4614",
"X  c #7E501E",
"o  c #7A5527",
"O  c #873C0B",
"+  c #8B430D",
"@  c #94460C",
"#  c #96490E",
"$  c #98480D",
"%  c #9E5806",
"&  c #834B1A",
"*  c #8D4B1A",
"=  c #8B4814",
"-  c #954C12",
";  c #994E12",
":  c #914E1C",
">  c #934510",
",  c #89541C",
"<  c #94531D",
"1  c #9A5B1E",
"2  c #985517",
"3  c #A25A06",
"4  c #A05C1D",
"5  c #9C631D",
"6  c #8D621F",
"7  c #AA660C",
"8  c #A6681A",
"9  c #AD7218",
"0  c #B67B16",
"q  c #B37615",
"w  c #B06C0D",
"e  c #865A26",
"r  c #955422",
"t  c #9B5D23",
"y  c #955C23",
"u  c #815F31",
"i  c #9E6122",
"p  c #99672A",
"a  c #8B6936",
"s  c #946936",
"d  c #987439",
"f  c #91672C",
"g  c #A16522",
"h  c #A56A23",
"j  c #A96E24",
"k  c #A36B2C",
"l  c #A3682B",
"z  c #AC7325",
"x  c #AB752A",
"c  c #B37C25",
"v  c #B27C29",
"b  c #B27622",
"n  c #A46B33",
"m  c #A77133",
"M  c #AB7534",
"N  c #AC7939",
"B  c #A77A39",
"V  c #B37D36",
"C  c #A15F20",
"Z  c #997947",
"A  c #8B7248",
"S  c #A67B45",
"D  c #AC7742",
"F  c #BC831B",
"G  c #B9861D",
"H  c #B5822A",
"J  c #B9852A",
"K  c #BD8B2B",
"L  c #B98524",
"P  c #A58437",
"I  c #B2813C",
"U  c #BA8837",
"Y  c #B79034",
"T  c #C28C1E",
"R  c #C2871A",
"E  c #C7921E",
"W  c #D8A41C",
"Q  c #C18E28",
"!  c #CD9B26",
"~  c #C3932D",
"^  c #C69C2B",
"/  c #C89525",
"(  c #CA9D31",
")  c #C59738",
"_  c #C28E38",
"`  c #D2A42A",
"'  c #D8AC2D",
"]  c #D6A829",
"[  c #CEA232",
"{  c #CCA33A",
"}  c #D5AB33",
"|  c #D3A836",
" . c #DCB433",
".. c #DEBA3A",
"X. c #DBB638",
"o. c #D4AC2E",
"O. c #E3BC35",
"+. c #E2BD3A",
"@. c #E1B635",
"#. c #E4B927",
"$. c #E2AE16",
"%. c #E6C23A",
"&. c #E9C539",
"*. c #EDCC3C",
"=. c #E8C535",
"-. c #F0CF3D",
";. c #F1D23E",
":. c #F1D037",
">. c #EFD03E",
",. c #95824C",
"<. c #9A8554",
"1. c #A98546",
"2. c #B58A42",
"3. c #B78A46",
"4. c #BB9246",
"5. c #BC944A",
"6. c #B89448",
"7. c #A58B56",
"8. c #B48854",
"9. c #B79655",
"0. c #A99857",
"q. c #BBA65D",
"w. c #AC9365",
"e. c #B99C67",
"r. c #AF926B",
"t. c #BBA466",
"y. c #B7A670",
"u. c #C19A4D",
"i. c #C89947",
"p. c #C39C53",
"a. c #CC9A53",
"s. c #C89958",
"d. c #C7934B",
"f. c #CBA34D",
"g. c #C9A748",
"h. c #D4AB4A",
"j. c #CDB346",
"k. c #D7B748",
"l. c #C6A252",
"z. c #CCA552",
"x. c #CCAB5A",
"c. c #C9A859",
"v. c #D2AD5D",
"b. c #D5AA55",
"n. c #CCB25C",
"m. c #DBB554",
"M. c #D2B35D",
"N. c #DCB55B",
"B. c #DAB958",
"V. c #E3BD45",
"C. c #E2BC57",
"Z. c #F0BE51",
"A. c #C69B64",
"S. c #C79C74",
"D. c #C8A865",
"F. c #D3AC63",
"G. c #D5A968",
"H. c #CBB765",
"J. c #D6BB63",
"K. c #D8B867",
"L. c #C8AA77",
"P. c #CAB974",
"I. c #D8B776",
"U. c #D5AC77",
"Y. c #E2BE77",
"T. c #E4BA67",
"R. c #DCC357",
"E. c #DCC242",
"W. c #E6C745",
"Q. c #EFD245",
"!. c #EED34B",
"~. c #F0D243",
"^. c #F3D54B",
"/. c #E5C858",
"(. c #EDD553",
"). c #EDD75B",
"_. c #EDD85D",
"`. c #EBD459",
"'. c #F2D953",
"]. c #F4D95A",
"[. c #F7CA4E",
"{. c #DBC36A",
"}. c #DBC66B",
"|. c #DECC74",
" X c #D9C776",
".X c #DED27B",
"XX c #CBC57C",
"oX c #E5C967",
"OX c #ECD964",
"+X c #EBDB6B",
"@X c #E9D367",
"#X c #F8D667",
"$X c #E7C779",
"%X c #EADD73",
"&X c #E1D27C",
"*X c #EADF7B",
"=X c #E7DA79",
"-X c #FCD47B",
";X c #FADA79",
":X c #F5C972",
">X c #F5E464",
",X c #EAE17D",
"<X c #ECE176",
"1X c #F2E479",
"2X c #EFE06F",
"3X c #BDA881",
"4X c #D8B884",
"5X c #D6BA95",
"6X c #CAB288",
"7X c #E1BD86",
"8X c #C39E80",
"9X c #DCD787",
"0X c #D7C68F",
"qX c #E8C986",
"wX c #F2CE82",
"eX c #E2D682",
"rX c #E4DB84",
"tX c #E4DC89",
"yX c #E8D687",
"uX c #FAD885",
"iX c #E3C694",
"pX c #E8D796",
"aX c #F7DB96",
"sX c #E6E184",
"dX c #E9E284",
"fX c #E6E28D",
"gX c #E9E48B",
"hX c #ECE88D",
"jX c #F3E686",
"kX c #E7E593",
"lX c #EAE593",
"zX c #EBE993",
"xX c #E6E699",
"cX c #EBEB9C",
"vX c #E9E799",
"bX c #F8E598",
"nX c #DBCBAC",
"mX c #E7CCA4",
"MX c #EBD6A7",
"NX c #EAD9B6",
"BX c #EFDAB0",
"VX c #ECEBA2",
"CX c #EFE4AB",
"ZX c #F9E7A5",
"AX c #F6EAB8",
"SX c #F7F1BD",
"DX c #EEEBAD",
"FX c #E8DCC3",
"GX c #F7EAC8",
"HX c #F6F3C7",
"JX c #F5ECD4",
"KX c #FAF5D8",
"LX c #EAE0C9",
"PX c #FDFBE7",
"IX c #FFFFF6",
"UX c None",
/* pixels */
"UXUXUXUXUXUXUXUXUXUXUXUXUXUXUXUXUXUXUXUXUXUXUXUXUXUXUXUXUXUXUXUXUXUXUXUXUXUXUXUXUXUXUXUXUXUXUXUXUXUXUXUXUXUXUXUXUXUXUXUXUXUXUXUXUXUXUXUXUXUXUXUXUXUXUXUXUXUXUXUX",
"UXUXUXUXUXUXUXUXUXUXUXUXUXUXUXUXUXUXUXUXUXUXUXUXUXUXUXUXUXUXUXUXUXUXUXUXUXUXUXUXUXUXUXUXUXUXUXUXUXUXUXUXUXUXUXUXUXUXUXUXUXUXUXUXUXUXUXUXUXUXUXUXUXUXUXUXUXUXUXUX",
"UXUXUXUXUXUXUXUXUXUXUXUXUXUXUXUXUXUXUXUXUXUXUXUXUXUXUXUXUXUXUXJXKXGXGXAXZXMXMXMXpXMXBXNXMXmX5Xr.n UXUXUXUXUXUXUXUXUXUXUXUXUXUXUXUXUXUXUXUXUXUXUXUXUXUXUXUXUXUXUX",
"UXUXUXUXUXUXUXUXUXUXUXUXUXUXUXUXUXUXUXUXUXUXUXUXUXUXUXKXJXGXZXaX-X$X$XY.Y.Y.Y.Y.I.I.P.U.U.P.5XmXNXFX5X8.UXUXUXUXUXUXUXUXUXUXUXUXUXUXUXUXUXUXUXUXUXUXUXUXUXUXUXUX",
"UXUXUXUXUXUXUXUXUXUXUXUXUXUXUXUXUXUXUXUXUXUXUXUXKXKXAXaX-XuX$XY.I.I.I.K.K.T.{.oXoXoX$X:XwX$XI.U.A.y.6XMXFX4Xn UXUXUXUXUXUXUXUXUXUXUXUXUXUXUXUXUXUXUXUXUXUXUXUXUX",
"UXUXUXUXUXUXUXUXUXUXUXUXUXUXUXUXUXUXUXUXUXUXKXGXZXuXwXqXP.D.H.H.}..X=XrXdXdXrX*X*X%X%X@X@X@XOX#X-X$XI.e.w.5XFXiXD UXUXUXUXUXUXUXUXUXUXUXUXUXUXUXUXUXUXUXUXUXUXUX",
"UXUXUXUXUXUXUXUXUXUXUXUXUXUXUXUXUXUXUXUXKXGXbXuXwXP.e.q.P.rXlXvXkXhXgX*XdX*X,X,X*X*X%X%X%X2X+X+XOX].#X-XqXS.7.3XFX5Xl UXUXUXUXUXUXUXUXUXUXUXUXUXUXUXUXUXUXUXUXUX",
"UXUXUXUXUXUXUXUXUXUXUXUXUXUXUXUXUXUXUXJXbXuX&Xy.9.D.9XcXzXzXfXsXgXsXgXlX*XvX,X*X*X%X%X%X%X+X+X+X+XOXOX).'.#X-Xy.<.6XLXS.* UXUXUXUXUXUXUXUXUXUXUXUXUXUXUXUXUXUXUX",
"UXUXUXUXUXUXUXUXUXUXUXUXUXUXUXUXUXKXAXuXwXy.<.P.zXcXvXlXlXfXtXgXsXgX*XDXKXHX%X*X*X%X%X+X+X+XOXOX@X`.)._._.(.^.#XwXe.<.nXmXn   UXUXUXUXUXUXUXUXUXUXUXUXUXUXUXUXUX",
"UXUXUXUXUXUXUXUXUXUXUXUXUXUXUXUXGXaX-XP.<.D.xXVXxXkXlXfXfXlXsXdXsXsXdXHXIXPXcX%X+X%X%X+X+X+X+X_.jXjXjX,X(.).).(.[.#XY.<.y.GXr.O UXUXUXUXUXUXUXUXUXUXUXUXUXUXUXUX",
"UXUXUXUXUXUXUXUXUXUXUXUXUXUXJXAXuXyXw.0.tXVXxXkXkXkXlXfXsXfXgXdXsXsXzXZXKXZXdX*X%X%X+X+XOX+XOX).;XPXPX2X(.).(.(.(.!.[.uXr.Z BX6X: UXUXUXUXUXUXUXUXUXUXUXUXUXUXUX",
"UXUXUXUXUXUXUXUXUXUXUXUXUXKXZX-XP.,.P.VXcXxXVXVXVXDXfXfXfXsXdXgXsX*X*X%XlXdX+X%X%X+X+X+X+XOXOX+XSXPXPXZX).(.!.(.(.!.^.~.-X4XA iX5X: = UXUXUXUXUXUXUXUXUXUXUXUXUX",
"UXUXUXUXUXUXUXUXUXUXUXUXJXZX-XS.,.9XVXxXxXkXkXKXPXSXsXgXsXsXsXdX,X,X,X*X%X%X%X+X+X+XOXOX+XOXOXOX_.ZXbX_.'.(.(.!.(.!.!.Q.~.].qXA 6XmXr & UXUXUXUXUXUXUXUXUXUXUXUX",
"UXUXUXUXUXUXUXUXUXUXUXLXZX-Xw.7.xXxXxXxXxXkXVXPXPXKXVXsXsXsXdXdX*X%X*X,X*X,X,X<X<X%X+XOX_._._._.`.OX_.(.(.(.!.(.Q.Q.Q.Q.;.-.[.wXZ 3XmXr . UXUXUXUXUXUXUXUXUXUXUX",
"UXUXUXUXUXUXUXUXUXUXLXZX;Xw.0.cXxXxXxXxXkXkXVXVXKXzXsXsXgX,X*XtXtXlXCXZXvXvXMXMXpXpXMXMXhX,X2X'.(.(.(.(.(.(.!.!.Q.!.Q.:.-.-.:.[.-XA 6XiX* * UXUXUXUXUXUXUXUXUXUX",
"UXUXUXUXUXUXUXUXUXnXZX;Xw.0.VXcXxXxXxXkXkXkXfXsXzXfXgXsX=XpXVXZXZXbX$X$X$XI.T.{.$X$X X X7X0X0XpX1X].!.(.!.!.!.!.Q.~.bX;XbX*.*.&.Z.wXA 5X6X>   UXUXUXUXUXUXUXUXUX",
"UXUXUXUXUXUXUXUXUXAX-Xe.<.cXxXxXxXxXkXkXkXfXfXgXsXdXrXvXZXZXaX{.s.2.m l i 1 1 1 t l V U f.J.{.4X6X0X1X'.!.!.!.Q.Q.-.SXIXSX&.*.%.%.[.qXA mXA.O UXUXUXUXUXUXUXUXUX",
"UXUXUXUXUXUXUXUXGX-XL.,.cXcXkXxXxXxXkXkXkXfXfXgXsXpXZXbXyX9.m y < < < r r y t t t : : : : 1 x i.{.P.y.0X2XQ.~.Q.>.;XSXPXSX#X=.%.+.+.[.I.A mXD = UXUXUXUXUXUXUXUX",
"UXUXUXUXUXUXUXJXuX$XA kXcXxXVXkXDXxXkXkXlXfXsX9XaXZX&X7.y < r r y r t r r U oXm t N l r < t r : 1 U T.L.3XyX'.>.~.>.>.ZX*.%.%.%.+.@.@.#Xr.<.mXr * UXUXUXUXUXUXUX",
"UXUXUXUXUXUXnXZX,XA XXVXxXzXHXKXKXkXfXkXfXsXtXVXbXq.f < t i t t t i p t i 5.{.M p 3.4.u.U k y y t r 1 g.K.y.4XOX:.>.*.W.%.%.+.+...@. .@.-XA 6XU.* : UXUXUXUXUXUX",
"UXUXUXUXUXUXAX-Xw.0.VXxXxXxXSXIXPXSXfXhXsXpXZX&XZ y l l l l l l n k l l l l n l l C l n V 4.) H l p l t x C.y.L.#X:.*.=.%.%.+.+...@.| | V.7XA mXD : UXUXUXUXUXUX",
"UXUXUXUXUXFXuXY.A xXcXxXxXVXDXHXHXkXfXsXpXbXI.s k m m n n m n m m n m n m m n n n n n n k n N ) ( V n n n n m.D.r.@X=.%.%.O.+.@.@. .X.| ' [.w.7.iXr r UXUXUXUXUX",
"UXUXUXUXUXBX-XZ XXcXxXxXxXxXfXxXVXsXdXiXbXH.s M N N N N N N N N M N N N N N N M N N N N N N N m I [ ) M N N n m.P.r.:XO.+.@.X.X. .| } | ` | -XA 5X3.2 UXUXUXUXUX",
"UXUXUXUXGXuXL.<.VXxXxXxXkXxXfXzXfXgXpXbXP.d I I I I I I I I I I I I I I N 2.N 2.V I I V I I N I V N ) ` I V V N m.L.y./.O.+.X. . .| ' [ ` [ Z.D.<.iX4 C UXUXUXUX",
"UXUXUXUXCX-XZ 0XxXxXxXkXkXkXfXfXhX9XaX Xd I 2.2.2.3.2.2.4.U 2.2.2.2.2.2.2.U 2.2.2.2.2.2.2.2.2.2.2.2.1._ ] U 2.2.I /.e.L.V. . .} } {.m.N.m.^ [ :XZ 5X3.5 UXUXUXUX",
"UXUXUXFXuXG.<.VXxXxXxXxXkXzXfXgXrXpXyXZ 4.5.5.4.4.4.5.d.4.4.5.4.4.5.u.3.3.d.3.5.5.4.4.4.3.3.4.5.4.4.4.5.) ] 4.4.2.4./.w.I. .X.} ` {.PXKX{ ^ ~ Z.A.w.4XC g UXUXUX",
"UXUXUXBX-X<.XXVXxXxXkXkXkXfXgXdXiXbX0.2.l.u.u.u.u.p.4.x C 4 1 1 C C M u.p.p.u.u.u.u.u.u.u.d.5.u.u.d.5.u.5.f.@.u.d.5.f.{.w.T.} } h.CXPXPXqX( ~ | :XZ iXN h UXUXUX",
"UXUXUXaX$X,.xXxXxXkXkXfXfXfXgX9XaXH.1.z.l.l.l.l.c.d.2 # ; ; # # ; ; $ g l.l.l.l.l.l.l.l.z.z.l.l.l.l.l.l.l.p.h...p.l.p.R.e.e.X.} | | BXY.{ ~ ~ K Z.0.L.D.8 1 UXUX",
"UXUXBXuXA.e.VXzXkXkXfXkXfXgXsXiXjXZ z.x.x.x.x.x.n.M # 2 + . e , & = ; # m n.x.x.x.x.x.x.x.x.x.x.x.x.x.x.x.x.c.R.m.c.x.x.oXw.F.` [ ! h.{ ~ ~ ~ J h.T.7.7Xz z UXUX",
"UXUXMX-X<.9XcXxXkXfXVXfXgXgXtXaXD.6.J.n.M.M.M.n.M.C - + a q.n.M.n.4.2 ; , n.M.v.M.v.n.M.n.M.n.v.n.M.v.n.M.v.n.M.!.M.n.v.R.c.e.| ( ( ^ ~ ~ ~ Q J ( :X1.5XV z UXUX",
"UXUXaX:X<.cXzXcXHXKXDXsXsXsX9XuX7.J.{.J.{.J.J.{.J.4 $ & H.{.J.J.{.{.h - & x.{.J.J.J.J.J.J.J.J.J.J.J.J.J.J.J.J.J.R.R.J.M.J.oXr.b.^ ( ^ ~ ~ ~ Q U U Z.9.L.a.b UXUX",
"UXBXuXU.0.cXkXfXKXPXKXVXsXsXpXK.0.oX{.{.{.{.}.}.{.4 @ p |.}.{.{.{.}.j # = H.{.{.{.{.{.{.{.{.{.{.{.{.{.{.{.{.J.{.{.R.{.{.{.@XA.D.( ( ~ ~ _ Q Q J c h.F.e.I.c b UX",
"UXNX-Xq.P.cXkXZXSXPXDXfXsXqXuXq.H.|.}.|.}.|.|.|.{.C # p |.|.|.}.}.|.k $ * H.|.}.|.{.|.}.|.}.|.}.}.}. X|.}.|.}.|.}.{.R.|. X@XJ.e.{ ~ ~ ~ K K J J v ) T.8.4XL c UX",
"UXMX:X9..XvXfXfXsXZXzXsXsX9X-X0..X.X|.|..X|.|.|.|.1 # s &X|.|..X&X&Xx $ , {.&X|.|.|.|.$X.X|.|.|.|..X|. X|.|.|.|.|.|.B.|.|.|.@Xe.l.~ Q Q K K J J v K T.0.4XY c UX",
"UXpX:X0.9XzXfXfXsXgXdXdX*XqX|.D.=X&XeX&X&X.X.X&X.XC @ p rX&X&X|.|. XN @ , XX&X&X&X&X|.|.|.&X&X&X&X&X&X&X&X&X&X&X&X&XJ.}.&X&X@XD.s.Q K K J J H v c b T.9.4Xi.L UX",
"UXiX$X0.kXfXlXsXsXsXsXgX&XyXH.P.gX Xc. XrXeXeXrX&XC @ f tXeXfXd.2 4 l t *  XrXeXeXeXx 2 p  XrXeX&XeXrX&XeXeXeXeX&XrX{.{.rX9X=Xx.A.Q K K J H v v b z m.l.U.f.G UX",
"BXqXT.e.zXfXsXgXsXdXdX,X&XwXD..XlXP.- 8.tXtXtXtXsXk ; ; P.zXcX4.@ # ; g d 9XtXrXtXtXl $ * XXsXtXtXtXtXtXtXtXtXtXtXtXeXH.tXtXrXM.A.~ K K J H c v b j h.c.U.F.K f.",
"MXwXF.D.zXfXsXgXsXgX*X,XeXqXc.9XlXeXn. XlXfXfXkXcX5.@ ; 2 V u.V # 2 ; # g  XcXfXfXfXk $ , 9XlXfXfXfXfXfXtXtXtXtXtXfXtXc.fXfXsXJ.A._ J c 9 s.V z x h ) v.D.G.T x.",
"MX$XF.H.hXsXgXsXsXsX,X,X&X$XD.fXzXtXkXkXlXkXkXlXvXfXp + # # # k ; ; = # # ; D.cXzXkXj # < 9XzXkXlXlXlXlXkXlXkXlXkXkXvXn.tXzXlX{.D._ c 4.c.LXU.3.x h _ v.A.G./ b.",
"mX$Xn.H.hXsXdXdX,X*X*X,X|.|.H.gXlXH. XlXfXsXgXfXsXfXeX1.6 & X k ; = q.m # ; # 4.zXvXj # y 9XgXgXfXfXsXfXtXlXfXfXfXfXzXD.eXgXhX{.D.Y c U NXIXJXA.j C U v.D.K.! b.",
"NXY.F.H.gXsXdXdX,X*X*X<X|.Y.H.,XhXK.{.dX*X*XsXsXdXdXdXjXgX.XsX4.# + H.hXP + 2 @ x =Xm $ 6 =XhXhXhXdXhXhXhXdXsXsXgXdXhXn.|.dXdX{.D.U c 9 4XLXNXj g g U v.D.K.! M.",
"mXY.n.{.gXdXdX,X*X<X*X*X XY.n.,X,X{.J.,X,X,X,X,X*X*X*X*X,X,XjX4.# @ n.jX,X6.@ 2 @ 5 6   e J.{.}.}.{.{.}.}.,X,X,X*X*XjXM.|.,X*XR.c.U c v d.j 3.M g 8 V v.D.K.! N.",
"mXY.F.M.hX,X,X*X,X*X*X<X&XY.n.+X<XoXn.1X%X%X%X%X%X%X%X%X<X%X1X4.# = n.<X<X1Xg.- = y ; ; - % 2 - % - ; ; ; Y <X%X%X*X+X<X%X*X%Xn.F.V b z j j 8 h h C U v.F.N.] B.",
"mX7XF.M.dXdX=X*XDX*X<X<X@XI.x.@X2X@Xj.+X+X+XOX+XOX+X+X+X+X+X2X) # = j.2X+X+X<Xn.5 g - 2 + + + + + + + - ; # }.2X+X2Xd.I @X<X@Xj.F.V x x j h h h g 1 I F.G.N.] C.",
"mX7XF.n.dX*XgXAXPXKXzX+X@XP.n.`.>XOXk.OXOXOXOXOXOXOXOXOXOXOX>XY + O j.2XOXOXOX>XoXj - - d P P P P P P 2 ; - R.>XOX_.I p /.2X`.l.c.b z j j h h g g 1 U v.G.N.' R.",
"UXqXF.n.*X*X,XSXIXKX%X+X@XI.v./.)._.k./.).).).`.).).).).).).OXh.f f j.>X).).).).>Xz - = R.>X>X>X>X>X>Xh O . E.OX_._././._._.R.x.a.j z j h h g i t 1 u.n.U.k. .UX",
"UXiXv.n.=X,X%XzXDXZXjXOX+XY.D.R.'.(.W.E.'.(.(.(.(.(.(.(.(.(.(.'.'.'.'.(.(.(.(.(.'.z # - E.'.(.(.(.(.'.j.Y Y /.'.(.'.'.'.(.`.j.M.3.j j j h g i i 1 t u.v.U.V.@.UX",
"UXiXD.x.@X<X*X<X%X+X+X+XOX}.D.B.Q.!.!.W.Q.!.!.Q.!.!.Q.^.!.!.!.!.^.^.^.!.!.!.!.!.!.z # = E.^.!.!.!.!.!.^.'.'.!.!.!.!.!.!.!.!.g.F.V j h h g g 5 t 1 i l.b.T.+.O.UX",
"UXiXG.x.R.,X<X+X+X%X+XOXOX@XD.x.W.;.~.*.W.~.~.~.~.-.~.~.;.~.~.~.~.~.~.~.~.~.~.~.~.9 ; = =.^.~.~.~.~.^.L 4 8 %.~.~.Q.~.~.Q.E.l.z.h h h g g i 1 1 < k x.v.K.+.O.UX",
"UXUXG.D.B.*X%X%X+X+X+X+XOXOXK.e.W.-.*.>.*.*.*.>.*.*.*.*.*.-.-.*.*.-.*.-.*.*.>.>.~.b - = ..~.;.;.;.;.;.8 + - X.;.>.>.*.>.;.{ v.4.h h h 5 1 1 1 1 < N v.M.C.&.O.UX",
"UXUX4Xp.J.+X%X+X+X+XOXOXOX_.oXe.b.%.=.=.>.*.=.=.&.&.%.%.&.&.&.%.=.%.=.%.%.%.=.=.*.9 - - 9 L 0 c c c L 4 # - o.*.&.&.&.&.X.5.N.x h C D e.N 8.< r : 2.M.G.W.*.UXUX",
"UXUXiXp.J./.2X+X+X+XOXOXOX_.).F.9.W.O.O.O.;.O.O.O.O.O.O.O.O.O.@.O.O.=.O.O.O.O.=.+.b ; ; - - # $ $ - $ ; ; & o.=.=.O.=.%.Y b.d.g h t M JXPX8.= : y p.N.K.~.-.UXUX",
"UXUXiXA.c.R.2X+X+XOXOXOX_._.].oXw.b.@. . .=.=.' @. . . . . . .#.@.@. . .@. . . .@.! * . & . . . + . . . . 6  .O. . .O.[ 2.N.M 8 i j 5XPXPX5Xt * p x.F.T.-.>.UXUX",
"UXUXUX4X9.B.@XOXOXOX_._._._.(.(.G.8.k.' o.' #.#.] ] ] ' ' ' ' ' ' ] ' ' ' ] ' ' ' ' ` ^ ^ ^ ! ^ ^ ^ ^ ^ ` #.' o.' ' ' P M.4.C g g i i 5X8Xn r : 1.m.G.W.-.UXUXUX",
"UXUXUX7X9.F./.+XOXOXOX_._.).(.'.`.9.9.X.! ` ` #.] ` ` ` ` ` ` ` ` ` ` ` ` ` ` ` ` ` ` ] ' ] ] ] ] ] ] ] ] ] ` ] ] ] H 5.b.h g g i 1 < n t * * e 9.B.G.>.>.UXUXUX",
"UXUXUX7XD.9.R.OXOXOX_._.).(.`.(.!.C.7.z.] / ! ! $.W ! ! ! ! ! ! ! ! ! ! ! ! ! ! ! ! ! ! ! ! ! ! ! ! ! ! ! ! ! ! ] G 2.N.M 5 g i t 1 r < : : = d m.F.C.;.=.UXUXUX",
"UXUXUXUX4X1.M./.OX`._.).(.(.#X(.!.!.N.S b.! E / / $.W E / / E / E / E / E / E / E / / E / E / / / E / E / / E / G P C.2.C g t t r r < < : * & 6.C.F.W.*.UXUXUXUX",
"UXUXUXUX7Xe.9./._._.)._.lXjXZX~.!.^.!.D.S h./ F T G W W T F T R R T T T T T T T T T T T T E T T T T E T T G E G d M.d.5 8 t i 1 t < < < * = a m.F.M.*.Q.UXUXUXUX",
"UXUXUXUXUX4X1.x.(._.`.!.ZXIXKX1X!.!.Q.!.A.Z h./ 0 F F E ] E G F F F F F F F G F F F G G F F F R F F F F F R 9 d m.i.h g i t 1 1 r r : * * & 9.C.G.W.W.UXUXUXUXUX",
"UXUXUXUXUXUXA.<.C.`.(._.AXPXHX2X!.Q.Q.~.Q.c.Z f.^ q 0 q 0 ! ` Q 0 q q 0 0 0 0 q 0 0 0 0 0 0 0 0 0 F 0 0 F 5 B N.i.5 C C t i 1 < r : : * & d B.F.m.&.&.UXUXUXUXUX",
"UXUXUXUXUXUXY.S 5./.(.).'.1XjX*.!.Q.-.~.-.-.b.Z 5.| 0 w w w 0 ~ ( ) F q w q 0 K q w q 9 q 9 q q q w q 7 6 2.N._ g g C r 2 6X2 : : : * * e l.N.G.W.E.UXUXUXUXUXUX",
"UXUXUXUXUXUXUXU.d F.!.(.!.Q.!.Q.Q.Q.Q.-.-.*.~.C.S Z f.~ w 7 7 7 w L ~ i.i.w { 2X~ w w w w w 7 w w 7 6 d f.m.V 8 g C 1 A.nXPXnX8.* * * X 1.C.F.E.W.UXUXUXUXUXUXUX",
"UXUXUXUXUXUXUXL.e.Z B.!.!.!.Q.Q.~.-.-.-.*.&.&.%.W.a.Z 1.i.K w 3 3 3 3 7 w 3 H g.9 3 7 7 7 3 7 % 2 f 4.m.d.x g g g t t t NXIXnX: * > & d C.b.b.W.X.UXUXUXUXUXUXUX",
"UXUXUXUXUXUXUXUXU.1.S /.!.!.Q.Q.~.~.-.*.W.&.%.+.O.=.m.8.Z P 4._ c 9 3 % % % % % % % % 3 % 6 6 P u.b.f.v h h g g C t r r 6X8X6X= * & a m.b.F.E.W.UXUXUXUXUXUXUXUX",
"UXUXUXUXUXUXUXUXUXI.Z 8./.~.Q.~.;.-.*.&.&.%.%.+.@.@. .V.k.p.S S 1.2.4.Y H v z 9 x x B P 2.6.z.b.i.U j h h g g i i 1 1 y t + r : & u z.m.a.V.E.UXUXUXUXUXUXUXUXUX",
"UXUXUXUXUXUXUXUXUXUXU.d 3./.~.~.-.>.~.&.&.%.+.W.V. .'  .}  .h.z.d.3.2.1.3.3.4.6.6.6.u.g.f.i._ v z j j h g g 5 t 1 r < < : * > & o a.C.A.m.W.UXUXUXUXUXUXUXUXUXUX",
"UXUXUXUXUXUXUXUXUXUXUXG.a 8./.Q.*.*.&.%.+.+.#.oXpXC.k.} } | ` [ [ | { g.g.i.i.i.i.) ) K J z z z j h g C C g t 1 1 < < : * * & u z.C.s.h.E.UXUXUXUXUXUXUXUXUXUXUX",
"UXUXUXUXUXUXUXUXUXUXUXUXG.a 1./.W.*.%.%.+.+.=XGXIXSXk.' } | [ [ ( ( ~ ~ K K K K H H c v z x z j 8 V M M 3.1 1 t < r < * * & u f.C.s.k.W.UXUXUXUXUXUXUXUXUXUXUXUX",
"UXUXUXUXUXUXUXUXUXUXUXUXUXU.d S C.W.%.O.+.X.V.AXIXCX` } [ [ [ ( ( ( ~ K K L K J H v v v z z z j g N FXJX8.: r 1 r : : & . a m.m.s.h.E.UXUXUXUXUXUXUXUXUXUXUXUXUX",
"UXUXUXUXUXUXUXUXUXUXUXUXUXUXG.S a b./.%.X.O. .yXC.}.| | [ [ ( ( ~ ~ ~ H.) I.Y H H c v b z z j h g 9.PXIXnXN < < : : & o 1.B.h.a.k.E.UXUXUXUXUXUXUXUXUXUXUXUXUXUX",
"UXUXUXUXUXUXUXUXUXUXUXUXUXUXUXG.8.u 6.C.W.X.X.} o.` } [ [ ( ( ~ ~ ~ J I.PXGXH H c v z x z j l h g 8.8XFXD l < < = . u i.C.z.l.k.k.UXUXUXUXUXUXUXUXUXUXUXUXUXUXUX",
"UXUXUXUXUXUXUXUXUXUXUXUXUXUXUXUXG.A.a s z.V.X.| | [ [ [ ( ( ( ~ ~ K ) NXIXKX4Xc v c z z j h h g C 4 y 8.- < < . o S k.m.a.f.k.k.UXUXUXUXUXUXUXUXUXUXUXUXUXUXUXUX",
"UXUXUXUXUXUXUXUXUXUXUXUXUXUXUXUXUXUXG.8.u Z b.V.X.[ [ [ ( ( ~ ~ ~ K _ 4.mXH.c v x z x j h h g g C t 1 2 r X o s g.m.b.a.h.j.UXUXUXUXUXUXUXUXUXUXUXUXUXUXUXUXUXUX",
"UXUXUXUXUXUXUXUXUXUXUXUXUXUXUXUXUXUXUXG.A.S u d f.m.| [ ( ~ ~ K Q K J L U U c c z x j j h g g C 1 1 , , e d u.m.b.a.f.j.j.UXUXUXUXUXUXUXUXUXUXUXUXUXUXUXUXUXUXUX",
"UXUXUXUXUXUXUXUXUXUXUXUXUXUXUXUXUXUXUXUXUXa.s.S o d 5.z.j.{ ) ~ K J J H v z z x z z h 5 h i y 6 6 f d 2.h.m.z.a.a.j.X.UXUXUXUXUXUXUXUXUXUXUXUXUXUXUXUXUXUXUXUXUX",
"UXUXUXUXUXUXUXUXUXUXUXUXUXUXUXUXUXUXUXUXUXUXUXG.D.D a a Z 2.u.g.g.) Y Y Y H H x x x x x k d B I 6.l.h.z.a.a.a.j.j.UXUXUXUXUXUXUXUXUXUXUXUXUXUXUXUXUXUXUXUXUXUXUX",
"UXUXUXUXUXUXUXUXUXUXUXUXUXUXUXUXUXUXUXUXUXUXUXUXUXUXs.s.1.S d d S 1.2.6.6.6.6.6.6.6.2.6.4.u.g.g.u.f.f.a.z.j.UXUXUXUXUXUXUXUXUXUXUXUXUXUXUXUXUXUXUXUXUXUXUXUXUXUX",
"UXUXUXUXUXUXUXUXUXUXUXUXUXUXUXUXUXUXUXUXUXUXUXUXUXUXUXUXUXd.s.d.d.3.I 2.I 2.I 2.Y 6.6.5.u.f.a.a.z.u.6.g.UXUXUXUXUXUXUXUXUXUXUXUXUXUXUXUXUXUXUXUXUXUXUXUXUXUXUXUX",
"UXUXUXUXUXUXUXUXUXUXUXUXUXUXUXUXUXUXUXUXUXUXUXUXUXUXUXUXUXUXUXUXUX7.8.9.9.f.a.d.a.f.u.u.9.9.7.<.UXUXUXUXUXUXUXUXUXUXUXUXUXUXUXUXUXUXUXUXUXUXUXUXUXUXUXUXUXUXUXUX",
"UXUXUXUXUXUXUXUXUXUXUXUXUXUXUXUXUXUXUXUXUXUXUXUXUXUXUXUXUXUXUXUXUXUXUXUXUXUXUXUXUXUXUXUXUXUXUXUXUXUXUXUXUXUXUXUXUXUXUXUXUXUXUXUXUXUXUXUXUXUXUXUXUXUXUXUXUXUXUXUX"
};
