/* XPM */
static char *dad6b6bdefe84032a3894079131cfb86[] = {
/* columns rows colors chars-per-pixel */
"32 32 256 2 ",
"   c #823E0F",
".  c #864212",
"X  c #864A1B",
"o  c #914B12",
"O  c #914D1A",
"+  c #984D11",
"@  c #94531C",
"#  c #95591E",
"$  c #9B5B1D",
"%  c #985518",
"&  c #A05D1E",
"*  c #9F611C",
"=  c #AB680C",
"-  c #A1631B",
";  c #A66A1C",
":  c #A86D1C",
">  c #A76B12",
",  c #AA711E",
"<  c #B2761A",
"1  c #B67A1B",
"2  c #B87C16",
"3  c #924F23",
"4  c #8E5823",
"5  c #9C5E22",
"6  c #935626",
"7  c #9D6223",
"8  c #9E6429",
"9  c #976022",
"0  c #9D6A37",
"q  c #9F7132",
"w  c #A36623",
"e  c #A46923",
"r  c #A96E26",
"t  c #A1672A",
"y  c #A56B2B",
"u  c #A96E2A",
"i  c #AC7324",
"p  c #AB722B",
"a  c #AE7C2C",
"s  c #B47F26",
"d  c #B27C2C",
"f  c #A56D31",
"g  c #A26735",
"h  c #AA7433",
"j  c #AC7B3B",
"k  c #A67736",
"l  c #B27E34",
"z  c #B07F3C",
"x  c #AD7A45",
"c  c #BB821A",
"v  c #BF8416",
"b  c #B48125",
"n  c #BB8C24",
"m  c #BC8A2D",
"M  c #B9842A",
"N  c #BF9128",
"B  c #AF8334",
"V  c #B28333",
"C  c #B98535",
"Z  c #B2833C",
"A  c #B5893B",
"S  c #BB8C3C",
"D  c #BF8E33",
"F  c #BE913D",
"G  c #BF993D",
"H  c #C58E1C",
"J  c #CD981B",
"K  c #C28C23",
"L  c #C18D2C",
"P  c #C99523",
"I  c #CE9B24",
"U  c #C5942C",
"Y  c #C99B2F",
"T  c #D29F20",
"R  c #C29232",
"E  c #C69A35",
"W  c #CD9E31",
"Q  c #C4993C",
"!  c #CEA22B",
"~  c #D6AA2C",
"^  c #D9AD2C",
"/  c #D2A62B",
"(  c #DEB229",
")  c #CCA33A",
"_  c #D7AD33",
"`  c #D3A636",
"'  c #DCBA3A",
"]  c #DAB235",
"[  c #E5BF35",
"{  c #E4BC3A",
"}  c #E5C235",
"|  c #ECC737",
" . c #E4C13C",
".. c #EAC73A",
"X. c #EDCA3B",
"o. c #F0D13E",
"O. c #B38542",
"+. c #B48943",
"@. c #BB8C42",
"#. c #B78749",
"$. c #B88B4A",
"%. c #B28B4B",
"&. c #BD9345",
"*. c #BE954C",
"=. c #BD9A48",
"-. c #AE8E53",
";. c #B68957",
":. c #BA9455",
">. c #B38962",
",. c #B98E65",
"<. c #BB9367",
"1. c #BD9B75",
"2. c #C59B42",
"3. c #C99E45",
"4. c #C29B4D",
"5. c #C19748",
"6. c #C49F55",
"7. c #C49C5C",
"8. c #C19659",
"9. c #CBA441",
"0. c #CFAC43",
"q. c #C6A24C",
"w. c #CAA34C",
"e. c #D2AA47",
"r. c #CFB342",
"t. c #D8B649",
"y. c #CCA653",
"u. c #CEAC52",
"i. c #C5A35C",
"p. c #CDAC5A",
"a. c #C6A559",
"s. c #D6AE55",
"d. c #D1AC5C",
"f. c #CEB15D",
"g. c #D3B25C",
"h. c #DCBB5B",
"j. c #D9B656",
"k. c #E2BE4A",
"l. c #E3BF54",
"z. c #E4BE5B",
"x. c #C39F64",
"c. c #CDAB62",
"v. c #C6A36B",
"b. c #C9A965",
"n. c #D0AE66",
"m. c #CEB266",
"M. c #C9B16E",
"N. c #D4B563",
"B. c #D6BA65",
"V. c #DBBC66",
"C. c #D3BD6C",
"Z. c #D9BE6A",
"A. c #D0B36D",
"S. c #C8A773",
"D. c #C7BA74",
"F. c #D4BA73",
"G. c #DCBC7D",
"H. c #D5B974",
"J. c #DFC658",
"K. c #E3C347",
"L. c #EDCD42",
"P. c #E3C44A",
"I. c #E9CE4E",
"U. c #EFD041",
"Y. c #EED44C",
"T. c #F3D443",
"R. c #F2D74B",
"E. c #F5D945",
"W. c #EACD52",
"Q. c #E1CA5F",
"!. c #E8C952",
"~. c #EDD454",
"^. c #EDD95E",
"/. c #EFD855",
"(. c #F1D352",
"). c #F0D957",
"_. c #F1DC5B",
"`. c #F1D558",
"'. c #F6E35C",
"]. c #DAC265",
"[. c #DBC36A",
"{. c #D6C268",
"}. c #CDC67F",
"|. c #DAC573",
" X c #DECD76",
".X c #DAC17A",
"XX c #DBCE7D",
"oX c #D3C578",
"OX c #DED17B",
"+X c #E7D364",
"@X c #EDDC65",
"#X c #EBD669",
"$X c #ECDC6B",
"%X c #EAD562",
"&X c #F1DB63",
"*X c #F3DD69",
"=X c #E2C57C",
"-X c #E3CA7E",
";X c #E8CC73",
":X c #E3D376",
">X c #EBDD73",
",X c #E2D37B",
"<X c #E5DC7D",
"1X c #EADE7A",
"2X c #EBD174",
"3X c #F2DB70",
"4X c #E6C868",
"5X c #EBE17E",
"6X c #EEE077",
"7X c #F2E670",
"8X c #F4EA73",
"9X c #CDB383",
"0X c #C7B38C",
"qX c #D5BA84",
"wX c #DDBA83",
"eX c #D2B589",
"rX c #D6BC9A",
"tX c #CEC980",
"yX c #D9C585",
"uX c #DED281",
"iX c #D5D48B",
"pX c #E4C384",
"aX c #E7C88A",
"sX c #E3DA86",
"dX c #E8D78D",
"fX c #E4DC89",
"gX c #E7DA88",
"hX c #EACE98",
"jX c #EED39B",
"kX c #EDD796",
"lX c #EBE283",
"zX c #E3E28F",
"xX c #EAE58B",
"cX c #F1E68A",
"vX c #E6E593",
"bX c #EAE592",
"nX c #EBEB95",
"mX c #EAEA9B",
"MX c #E6E899",
"NX c #F0E89A",
"BX c #DBCCA7",
"VX c #E0CCAB",
"CX c #E2D0A9",
"ZX c #F4DEAD",
"AX c #EBDBB1",
"SX c #EEEDA5",
"DX c #ECEBA9",
"FX c #F3ECAA",
"GX c #F8EBA4",
"HX c #F0F0AE",
"JX c #EFEEB5",
"KX c #F5E7B7",
"LX c #F6F3C3",
"PX c #F7F4C9",
"IX c #FAF2C2",
"UX c None",
/* pixels */
"UXUXUXUXUXUXUXUXUXUXUXUXUXUXUXUXUXUXUXUXUXUXUXUXUXUXUXUXUXUXUXUX",
"UXUXUXUXUXUXUXUXUXUXUXZXhXaX-X=X=X=XwXS.>.UXUXUXUXUXUXUXUXUXUXUX",
"UXUXUXUXUXUXUXUXKXjX.X|.OX<X<X1X>X>X#X#X2XqX1.g UXUXUXUXUXUXUXUX",
"UXUXUXUXUXUXUXjXF.oXzXbXxXxXLXbX>X$X$X3X3X`.4X9X>.UXUXUXUXUXUXUX",
"UXUXUXUXUXKXpXD.zXJXMXgXlXlXNX1X$X@X^.FXGXY.Y.(.H.1.6 UXUXUXUXUX",
"UXUXUXUXCXH.}.SXMXLXSXlXcXcXcXcXlX5X#X&X_.Y.Y.T.T.V.1.3 UXUXUXUX",
"UXUXUXBXG.}.mXMXvXxXbXkXH.7.$.O.#.8.A. X%XR.U.FX3X| N.<.UXUXUXUX",
"UXUXUX=X}.SXJXvXxXbXA.h @ @ 5 Z 8 t & h x.4XT.*XW.[ k.b.;.UXUXUX",
"UXUXhXM.MXDXLXvXdX:.7 t f f f h f h l d f $.B...[ { ^ t.v.t UXUX",
"UXUXA.iXmXvXxXdX:.j O.+.+.O.Z Z O.O.z A R V *.m.{ ] t.` d.,.UXUX",
"UXjXD.MXvXxXvXi.&.4.@.u w p &.4.*.*.5.*.*.9.=.a.y._ ZXN.) v.u UX",
"UXwXtXmXvXxX.X6.f.d.$ # k $ f f.p.p.p.p.p.p.j.g.c.) e.E U n.$.UX",
"UXF.zXPXSXgXm.{.[.B.# p.:X4.5 {.[.[.[.[.[.[.].].Z.4.P L M y.7.UX",
"hXF.vXMXxX-X{.,X,X|.$ C.,X6.7 OX X|. X X X X X[.;Xd.L L s Q c.F ",
"aXoXxXlXlX.XXXb.sXsX$ c.a.+ h vX|.w XXfXgXgXsXXXgXN.D s < C c.3.",
"pX|.xX5X1X|.sXuXxXnXi.@ 7 $ $ 6.XX$ zXnXnXvXvXuXfXZ.l wXv.p c.e.",
"G. XlX5X1X[.:X X5X5XlX<X&.h [.% y # p.B.N.:XlX:X<X{.d 7.#.p d.s.",
"G.[.cXFX1XV.+XQ.$X@X$X7X2.t 8XQ.e O * * o B 7Xu.+Xg.a ; $ p g.t.",
"wX[.lXHX6XV.W.W././.~./.P.t.).'.D p _._.` Q ).I.~.q.r e $ h g.k.",
"wXB.>X$X$X[.t.U.U.o.U.o.T.E.U.E.n , E.E.W R T.T.K.A w * $ z z.K.",
"UXn.@X#X@X%Xu.[ ..} [ } } [ } | n O - - o : | } e.p ;.eXO *.!.UX",
"UXS.Q.@X%X).h.9.^ ( / / ~ ~ ~ ~ / N n n n ! ^ ) @.$ x ,.# d.L.UX",
"UXUXp.&X_.&X/.a.E J T I P P P P P I I I I J N &.w 5 O . j z.} UX",
"UXUXx.P.*XIX_.L.q.m v H K c c 2 c c c v c b &.r % @ O 4 y.P.UXUX",
"UXUXUX:.).&XY.o.L.w.A < < 2 < L < = = > a F u t rXg . +.z.UXUXUX",
"UXUXUX-.y.E.o.o...[ 0.&.l i : , ; : d S C e # 8 1.6 f h.' UXUXUX",
"UXUXUXUX<.w.o.X.{ 2XP._ ) 2.F F Q S C p w 7 # @ . q s.r.UXUXUXUX",
"UXUXUXUXUX:.=. .{ NXV.! Y Y 3.D s i : j VXf O X k d.t.UXUXUXUXUX",
"UXUXUXUXUXUX8.%.) ] ` W U R AXi.i i e y >.6 4 @.s.r.UXUXUXUXUXUX",
"UXUXUXUXUXUXUXUX-.+.Q E U L S s i e 7 5 9 Z u.t.UXUXUXUXUXUXUXUX",
"UXUXUXUXUXUXUXUXUXUX#.O.A A V V B B A &.w.0.UXUXUXUXUXUXUXUXUXUX",
"UXUXUXUXUXUXUXUXUXUXUXUXUXUX9X9XqXqX0XUXUXUXUXUXUXUXUXUXUXUXUXUX"
};
